<svg xmlns="http://www.w3.org/2000/svg" width="1080" height="620" viewBox="0 0 1080 620" role="img" aria-label="Global gridded dataset concept with world outline and dense graticule"><rect x="0" y="0" width="1080" height="620" fill="#ffffff"/><text x="70" y="58" font-family="Arial, Helvetica, sans-serif" font-size="30" fill="#000000">Global gridded dataset concept</text><defs><clipPath id="globeClip"><ellipse cx="540" cy="315" rx="430" ry="220"/></clipPath></defs><ellipse cx="540" cy="315" rx="430" ry="220" fill="#ffffff" stroke="#000000" stroke-width="2.2"/><g clip-path="url(#globeClip)"><rect x="110" y="95" width="860" height="440" fill="#ffffff"/><g fill="#e6e6e6" stroke="#000000" stroke-width="1"><path d="M636.7,343 L636.9,352.9 L622.5,363 L624.8,373.9 L617.6,378.5 L617.4,384.8 L611.8,391.4 L601.4,398.2 L587.8,400.1 L584.1,399 L583.5,392.6 L576.1,380.5 L574.7,370.1 L568.2,358.9 L568.1,353.6 L573.1,341.8 L569.3,329.9 L571.5,329.3 L569.6,329.7 L560.8,316.4 L564,314.5 L562.2,313.7 L563.3,304.9 L559.5,302.8 L554.2,304.4 L552.6,300.6 L549,298.8 L535.3,303.4 L530.9,301.9 L521.6,304.3 L510.1,296.9 L507.6,291.1 L503,287.3 L504.2,285.8 L499.9,284.6 L503.2,283.7 L500,284.3 L500.2,282 L503.5,282 L500.5,282.3 L500.9,280.4 L498.1,278.9 L501.7,271.8 L499.6,261.4 L505.4,251 L509.1,246.7 L515.5,243.4 L517.9,235.4 L523.7,231.8 L525.9,227.5 L535.3,229.3 L542.5,225.8 L563.3,223.7 L566.6,224.9 L564.7,232.6 L576.3,235.8 L577.7,238.3 L585.3,241 L587.9,239.7 L587.9,236.3 L591.9,234.5 L609.3,239.6 L614.3,237.7 L619.2,239.1 L622.9,236.9 L626.5,225 L618.4,226.9 L613.3,224.8 L610.9,226.7 L605.5,225.4 L607.7,224.5 L605.1,224.6 L605.1,222.1 L602.7,221.4 L604.9,221 L602.6,217.2 L619.6,212.3 L631.6,215 L639.7,212.9 L639,210.5 L627.4,204.5 L630.1,204.3 L632.2,202.3 L630.1,200.9 L633.8,199.5 L624.1,201.3 L624.4,204.1 L627.5,204.1 L621.1,206.5 L617.6,204 L620.3,202.2 L615.9,201.8 L618,201 L615.8,199.5 L616.2,201 L610.8,203 L610.7,205.4 L609,205.1 L605.6,211.2 L609.2,214.8 L602.5,217.1 L604,215.6 L600.1,214.8 L596.6,215.4 L597.3,217.3 L593.9,216.1 L595.8,219.2 L593.8,220 L597.5,222.6 L595,222.3 L595.4,225.9 L593.7,226 L590.5,222.2 L595.5,221.7 L590.4,221.3 L586.1,216.2 L586.8,212.8 L571.3,203.1 L569,204.2 L569.6,206.9 L584.2,216.9 L580.4,216.1 L579.4,217.8 L581.1,219.6 L578.4,222.3 L577.3,217 L560.9,206.4 L554.8,209.8 L547.8,209.4 L547.6,212.6 L541.7,215.2 L539.2,218.4 L540.6,220.3 L534.9,225.2 L526.6,227 L523.6,223.8 L518.5,224.5 L519.1,219.4 L517.3,220.1 L519.4,211.5 L518,209.5 L521.6,207.9 L535.4,209.1 L537.4,203.6 L538.8,205 L534.9,200.6 L535.9,199.6 L529.6,198.1 L528.7,196.3 L536.8,196.1 L535.4,193.5 L541.1,194.1 L544.1,190.5 L550.3,189.7 L548.2,189 L550.2,189.2 L549.2,188.3 L553.4,184.7 L563.5,184.1 L560.6,182.2 L559.4,177.9 L563.7,175.5 L560.4,176.7 L560.5,175.4 L565.4,173.9 L563.4,176.5 L566.2,177 L562.8,178.8 L563.5,181.8 L567.3,183.2 L571.1,181.9 L574.9,184 L572.9,182.6 L583.4,181 L586.3,182.1 L590.4,178.8 L589,180.6 L590.7,180.7 L590.1,176.8 L591.8,174.3 L598.3,175 L598.6,172.4 L596.7,172.4 L596.1,170.3 L612.2,168.6 L608.5,166.5 L594.7,168.8 L595.1,167.5 L591.1,166.9 L591.4,160.5 L600.8,156.2 L599,153.9 L594.1,153.9 L590.8,155.3 L591.6,157.5 L589.4,159.1 L581.4,162.3 L581.1,166.6 L585.6,168.9 L578.7,171.7 L580.5,172 L577.9,177.9 L570.7,179.6 L570.9,176.8 L565.5,168.5 L559.6,172.9 L553.5,171.9 L555.6,169.4 L552.4,169.4 L557,167.1 L553.7,168.3 L552,165.8 L558.4,165.3 L552.4,165.6 L553.9,164.8 L551.9,164.1 L556.3,163.7 L552.1,163 L557.2,163.2 L555,162 L559.5,161.8 L556.5,161.2 L566.1,159.9 L567.1,158.3 L562.8,159.1 L570.9,155.3 L569.3,155.5 L571.5,154 L570.3,153.5 L573.8,152.9 L571.2,153.2 L572.4,151.4 L577.6,150.8 L574.2,150.6 L578,149.9 L575.3,149.2 L582.7,147.8 L579.4,147.5 L583.6,145.1 L586.6,145.8 L586,144.4 L588.8,144.2 L587.7,145.7 L592.8,144.5 L591.4,143.1 L595.7,144 L600.6,141.5 L601.9,141.8 L599.8,143.7 L607.4,141.2 L606.9,143.7 L608.8,141.8 L614.2,143 L608.4,143.5 L610.4,144.7 L616.6,144 L620.1,145.3 L618.9,146.4 L625.7,145.9 L638,149.5 L638.4,151.7 L632.1,153.5 L616.1,150.8 L623.3,153.9 L621.9,155.2 L623,157.2 L629.7,159 L630.8,157.8 L627.3,156.8 L628,155.8 L636.8,157.2 L635,154.8 L640.7,152.4 L645.5,154 L646.4,151.4 L644.6,150.5 L646.1,148.6 L643.5,147.1 L651.2,148.5 L647.3,150.3 L650.9,151.8 L657.3,149.7 L656.1,148.9 L668.7,146.4 L670.3,146.4 L667.4,148.2 L680.7,146.3 L682.6,148 L685.6,146.6 L683.7,144.9 L685.5,144.2 L703.2,148.3 L705.4,146.4 L699.6,144.9 L700.9,142 L699.1,141.3 L706.7,136.6 L714,137.3 L711.5,140.3 L714,141.8 L713.4,146.5 L715.9,147.7 L711,152.1 L704.7,151.7 L712.2,153.1 L718.5,149.5 L718.3,146.9 L722.9,146.4 L724.7,147.5 L724.1,149.3 L728.8,149.8 L725.1,149.4 L726.7,148.1 L725.5,146.6 L716.2,145.9 L717.5,142.3 L714.4,140.4 L719.2,138.7 L718.6,137 L720.9,137.6 L719.8,140.6 L723.7,141.3 L729,141.4 L721.5,139.2 L726.6,138.1 L738.9,139.7 L736.1,142.5 L738,141.4 L738.5,143.7 L740.1,142.7 L738.6,141.2 L739.8,139.9 L732.8,137.7 L732.4,135.1 L747.3,134.4 L744.9,135.4 L747.3,136.6 L745.2,135.3 L749.4,134.4 L744.8,132.6 L747.9,131.3 L763.8,128.9 L777.9,129.8 L776.1,128 L784.3,128.3 L781.1,126.8 L789.1,125 L793.9,125.9 L788.8,126.6 L796.8,127 L794.2,128 L805.4,127.4 L812.1,129.6 L808.4,129.6 L811.4,131 L791,137.1 L804.9,134.9 L802.8,134.1 L809.6,134.1 L810.4,137.2 L812.5,137.5 L810.3,137 L812.6,135.1 L833.2,137 L837.1,134.6 L849.2,136.5 L845.6,137.4 L849.3,138.7 L845,137.9 L853,142.1 L857,139.1 L861.7,140.8 L874.5,140.3 L872.9,139.1 L874.9,138.5 L872.3,138.4 L876.2,136.8 L890.8,138.1 L884.3,138.3 L891,138.2 L886.1,139.8 L897.4,138.6 L895.5,139.8 L904.4,142 L920.4,141.9 L922.4,143.1 L921.7,144.5 L924.6,144.9 L925.6,146.4 L924.2,147.5 L926.3,145.1 L931.8,144.4 L940.9,144.4 L947.6,146.9 L948.9,146.2 L946.5,144.8 L947.3,143.5 L970,146.4 L970,155.9 L956.7,156.9 L964,156.7 L969,161.9 L962.8,161.3 L946.7,168.5 L944.2,166.8 L930.9,168.2 L927,173 L930.2,173.9 L928.9,176.2 L930.3,177.7 L928,177.2 L927.3,181.1 L922.3,182.6 L922.4,185.2 L918.5,185.4 L918.1,188 L914.3,190.7 L911.6,179.9 L912.5,176.6 L914.6,173.8 L931.2,166.2 L932.1,162.8 L935.7,162.3 L933.2,161.8 L922.7,166.9 L923,163.6 L914.3,164.6 L908.4,168.7 L910.7,170.3 L901.6,171.2 L903.9,170.2 L896.8,168.9 L895.8,170.2 L882,169.8 L863,180.8 L866.9,181.4 L866.7,183.5 L869,182.2 L868.1,184.2 L873.9,182.3 L877.8,184.7 L876.1,185.2 L878.2,187.5 L876.1,189.6 L874.9,196.5 L862.8,208.6 L858.1,210.7 L854.9,209.1 L850,212.9 L849.9,215.2 L844.6,217.8 L849.2,224.4 L848.2,229.3 L842.2,231.2 L843.1,226.8 L841.3,225.1 L843.5,224.6 L842.7,222.5 L837.8,221.8 L840.2,220.6 L837.1,217 L829.4,220.3 L832.2,216 L829.5,214.9 L824.1,219.3 L821.2,219.4 L824.6,224.1 L828.4,222.5 L833.1,223.6 L826.9,226.4 L824.7,229.4 L831.3,237.4 L825.7,235.9 L831.4,239.4 L827,241.2 L830,240.9 L831.4,243.5 L824.5,251.1 L825.8,253 L818.3,258.9 L813,260.6 L810.9,258.5 L811.1,260.8 L803.6,262.6 L803.4,265.5 L801.7,261.8 L794.8,263.6 L792.3,268.6 L800.3,277.7 L800.4,287.2 L795,288.9 L794.8,290.9 L793.5,290 L794.5,291.6 L792.8,290.5 L793.7,292.1 L790.4,294.1 L790.9,290.4 L786.4,288.4 L784.4,284.6 L780.9,284.1 L781.3,282 L778.8,282.5 L777.1,292.3 L778.5,292.3 L779.9,297.5 L786.6,302.2 L789,311.7 L782,308 L779.1,299 L774.8,294.9 L776.2,286.4 L773.5,274.5 L771.4,272.3 L767.9,276.6 L765.9,276 L766.3,274.6 L765.1,275.9 L764.7,267.6 L763.8,268.5 L763.9,266.3 L761.6,265.6 L756.5,257.3 L755.5,261.7 L755,260 L754,262 L754.1,260.4 L750.8,262.3 L750,260.2 L746.5,266.1 L731.8,276.6 L730.8,289.8 L728.5,291.8 L729.8,292.6 L725.2,295.3 L715.5,275.7 L714.2,260.6 L708.5,264.1 L704.7,260.4 L708.4,258.5 L704.5,258.7 L704.4,256.6 L701.2,256.6 L698.7,252.4 L687.5,253.9 L678,252.3 L675.7,248.7 L668.3,249.7 L662.8,246.7 L659.6,241.2 L654.5,241.4 L654,243.2 L659.8,249.8 L661.3,254.5 L661.8,251.5 L663.2,251.7 L662.5,255.6 L669.3,256 L675,250.6 L675.2,255.1 L682.9,260.5 L678.2,265.5 L678.2,268.5 L671.5,273.4 L645,284.2 L641.1,272.4 L633.6,263.4 L631.9,256.9 L622.6,246.3 L623.6,242.8 L621.8,247.2 L617.8,241.6 L634.9,278.1 L643.5,284.5 L641.6,286.9 L646.5,289.6 L662.5,286.1 L662.8,289.6 L654.5,304.1 L637.6,319.8 L633.6,326.4 L632.6,329.8 L636.7,343 Z"/><path d="M540,489.8 L561.9,486.3 L566.8,488 L571,486.2 L605.2,488.5 L618.2,486.1 L617.7,483.4 L619.3,482.9 L624.2,485.5 L633.2,486.6 L635.2,483.2 L651,479.5 L655.6,481.3 L658,479.3 L655.5,478.8 L661.5,479.3 L660.5,477.2 L668.5,476 L676.7,477.7 L673.8,477.8 L675.5,478.5 L674.2,479.8 L706.4,480.6 L706.6,484.4 L700.6,486.8 L705.4,487.2 L698.4,493.8 L700.6,494.2 L710.9,490 L715.4,485.6 L720.2,486 L729,481.6 L750.1,478.2 L776.1,478.6 L785.4,476 L800.1,478.7 L810.4,475.8 L816.6,478.3 L811.6,480 L840.9,477.1 L843.6,479.1 L848.3,479.2 L850.8,477 L858.4,476.5 L882.8,478.4 L885.6,479.1 L883.9,481.1 L888.9,480.2 L891.2,482.2 L900.6,482.1 L902.1,483.5 L907.5,481.9 L921.6,484.9 L927.8,488.8 L927,487.2 L928.4,486.8 L946.8,489.3 L948.4,490.6 L945.6,491.5 L946.7,492.5 L942.1,491.9 L945.9,492.8 L944.2,494.1 L937.4,493.2 L941.2,494.3 L935.7,495.7 L933,494.3 L935.2,497.4 L930.5,496.7 L928.4,498.9 L923.6,499.3 L929.2,500.3 L927.2,501.3 L929.1,501.9 L927.7,503.1 L933.1,505.4 L931.4,506.2 L939.5,507.3 L925.9,506.9 L927.2,508.3 L921,510.1 L925.7,510.3 L917.9,511.6 L924.1,511.5 L921.9,512.1 L925.4,512.5 L921,512.6 L924.3,512.8 L923,513.9 L931.6,515.9 L924.1,516.6 L933.4,516.3 L942.8,517.9 L938.9,518.4 L941.4,518.8 L970,521.2 L970,535 L110,535 L110,521.2 L168.5,523.1 L142.4,521.2 L150.6,521.2 L145.5,520.7 L148.5,520.2 L123.5,517.3 L159.7,519.2 L175.6,516.8 L164.8,513.6 L187.5,512.7 L179.3,511.6 L188.7,510.3 L166.1,507.3 L172.6,506.2 L161.7,505.6 L162,503.4 L192.5,504.5 L190.3,503.2 L192.5,502.6 L182.6,501.5 L192.8,501.8 L190.7,500.6 L204,500.3 L216.5,497.3 L249.1,497.8 L265.6,497.1 L267.2,495.6 L269.5,496.9 L267.4,498.5 L273.5,497.8 L273.4,496.3 L277,497.2 L274.1,498.9 L304,499.1 L293.9,494.9 L303.9,494.9 L294.2,494.2 L293.8,492.7 L322.4,494.3 L326.6,492.6 L343.8,495.6 L348.4,494.4 L347.7,493.3 L355.9,495.6 L375.7,493.7 L380.5,491.3 L375.6,484.7 L380.5,483.8 L378.8,483.3 L381.1,480.1 L378.5,480.1 L378.8,478.9 L381.2,479.6 L381,477.9 L387.6,475.4 L387.4,474 L403,469.5 L404.3,470.5 L401.2,470.6 L399.5,472.8 L391.4,474.6 L391.8,476.6 L395.4,476.2 L394.3,477.2 L387.6,476.8 L387.7,478.5 L383.3,479.7 L382.9,481.6 L385.3,481.5 L384.1,482.8 L389.8,482.3 L387.4,483.6 L394.4,489 L391.6,490.1 L394.8,490.5 L390.8,490.8 L395,491 L393.3,492.6 L396.8,493.2 L391.7,493.8 L394.8,494.9 L391.9,496.5 L394.3,497.1 L372.7,502.5 L354.4,502 L359.6,504.5 L366.3,504.6 L360.7,506.2 L344.9,505.3 L354.3,507.5 L339.7,505.6 L346.2,509.3 L358.3,509.2 L349.6,510.5 L357.8,510.8 L361,512.4 L359.5,512.7 L370.8,512 L391.4,514.4 L381.7,515.3 L395.7,515.9 L390,516.7 L394.3,517.8 L392.3,518.8 L418.7,515.3 L434.7,516.4 L447.3,512.7 L486.2,510.4 L453.4,507.7 L457.9,504.4 L496.4,499.5 L494.9,498.9 L498,496.8 L505.7,495.5 L500.5,494.6 L512.8,492 L514.1,490.5 L510.4,489.5 L514.3,490 L515.5,488.4 L519.9,490.3 L521.9,490.1 L521.1,488.2 L525.6,487.8 L525.3,489.5 L540,489.8 Z"/><path d="M404.6,404.8 L401.1,408.9 L391,409.8 L391.1,414.9 L384.4,414.8 L384.7,417.9 L387.7,417.9 L388,419.5 L384.9,419.3 L386.4,420.1 L383.9,421.7 L383.5,424.8 L378.6,427.4 L382.9,430.4 L381.4,432 L382.9,432.2 L377.8,437.2 L375.1,437.2 L376.7,437.6 L373.7,441.2 L376.7,442.9 L370.7,443.9 L369.7,446.7 L366.9,445.6 L369.4,443.9 L367.1,445.9 L364.9,445 L369.2,443.7 L363.9,443.9 L363.9,442.2 L366.8,443.2 L366.9,441.6 L363.5,441.2 L362.6,439.5 L364.3,438.2 L363.1,439.2 L361.6,437.7 L363.6,437.9 L362.4,437.1 L363.6,434.9 L362.6,436.1 L362.1,434.9 L363.5,433.3 L361.7,432.4 L365.1,432.3 L361.5,431.6 L363.1,431.4 L362.9,429.5 L359.1,429 L362.4,426.9 L363.8,428.7 L366.6,423.8 L364.9,422.9 L367.3,416.2 L364.4,417.2 L363.4,415.3 L365.1,411.4 L364,406.3 L368.9,397 L372.5,363.9 L372.1,360.1 L369.2,357.3 L358.6,350.8 L351.3,335.1 L346.1,329.6 L345.8,325.5 L349.5,321.3 L349.4,319.9 L348.3,321.7 L346.7,320.6 L346.7,317.6 L356,305.4 L355.2,298.9 L352.6,295.3 L354.3,295.1 L351.2,292.7 L346.8,297.4 L346.4,295.7 L342,295.4 L337.6,290.6 L335.4,290.8 L335.3,288 L330.6,283.5 L331.2,282.2 L321.9,280.9 L315.1,275.3 L309.3,276.7 L292.8,270.2 L287.9,266 L287.3,259.7 L278.6,252.3 L279.4,250.7 L267.7,237.6 L265.2,236.9 L266.2,241.4 L278.6,257.7 L277.3,259.1 L272.9,255.1 L271.5,250.9 L265.2,247.2 L267.8,247.4 L267.5,245.3 L263.6,242.3 L259.6,233.9 L251.8,230.5 L247.3,223.3 L249.9,222.1 L246.1,222.1 L242.9,216.6 L243.7,202 L245.7,202.1 L243.6,201.9 L242,196.8 L246.7,197.3 L246.9,199.9 L248.1,197.6 L246.5,194.1 L242,192.8 L241.8,190.5 L239.7,191.7 L238.3,191.2 L239.9,190.1 L234.8,189.9 L237.6,188.6 L234.5,188.7 L237.4,187.9 L236.7,185.9 L233.3,187.2 L234.2,185.6 L231.9,184.1 L234.5,184.9 L232.8,182.9 L231.1,184.5 L229.2,183.1 L230.7,182.4 L228.3,182.1 L230.7,179.4 L229.1,180.5 L229.4,178.3 L227.5,181.1 L227,177.8 L224.3,179.1 L225.9,177.6 L221,175.2 L222.2,174.8 L220.7,173.9 L222.3,174.4 L219.7,173 L220.4,171.9 L218.1,172.3 L216.7,169.6 L217.3,172.6 L212.6,170.6 L215,172.1 L213.5,172.7 L205.9,169.4 L208.2,168.8 L206.7,168.2 L195.4,168.3 L194.5,166.6 L191.4,167.2 L187.1,165.2 L184.8,166.4 L186.6,167.2 L185.4,168.4 L177.5,170.4 L179.3,168.9 L177.2,168.9 L178.3,166.5 L184,166.2 L181.5,165.5 L182.5,164.7 L174.2,167.6 L175.2,168.5 L171.5,170.4 L173.9,171.1 L161.5,178.1 L149.8,181 L164,174.5 L165.5,170.4 L162.1,171.7 L161.3,170.3 L160.6,172.2 L156.9,170.6 L153.6,171.9 L151.9,167.6 L153.3,166.6 L149.1,168.8 L144.8,167 L149.6,166.5 L143.2,163.9 L147.3,160.4 L155.3,159.6 L154.1,157.6 L155.9,156.8 L143,157.1 L141.2,155.7 L143.4,155.5 L138.3,154.5 L147.6,152.2 L155.2,153.4 L151.8,151.3 L157.3,152.4 L141.5,147.9 L153.2,143.1 L158.3,143.4 L158.6,141.9 L166.2,140.4 L168.4,141.1 L167.4,142 L197.8,143.6 L217.1,147.2 L215.2,145.8 L218.7,144.6 L220.5,145 L219.1,146 L230.8,143.6 L222.5,147.1 L235.4,143.3 L234.2,142.4 L240.3,145.6 L242.8,143.5 L242.8,145.4 L248.5,144.3 L265.3,146.7 L267.9,147.8 L265,149.3 L277.1,148.8 L283.8,152.8 L282.3,148.6 L287.6,147.2 L281.1,148.5 L281.3,147.3 L286.3,146.5 L290.4,148.7 L306.9,149.8 L304.2,147.9 L306.2,147.4 L310.9,148.1 L309.6,150.1 L312.3,151.2 L309.6,151.1 L311.1,152.2 L311.9,148.6 L316.9,147.2 L313.9,146.9 L316.8,145.1 L309.3,143.3 L311.2,142.6 L309.5,140.8 L314.1,139 L321.4,143.5 L318,144.7 L324.3,145.2 L321.5,145.5 L323.9,148 L326.9,145.7 L329.7,146.8 L328.9,148.8 L330.9,150.9 L338.1,146.3 L335.6,144.2 L345.8,146.1 L342.6,147.7 L345.3,151.2 L340.8,152.8 L336.4,151.4 L340,153.2 L332.7,152.4 L334.9,153.3 L331.3,155.3 L321.4,153.8 L332.2,156 L324.4,159.5 L316,158.1 L323.5,160.9 L317.2,162.5 L318.4,162.9 L313.5,167.1 L313.1,170.6 L314.6,172.7 L317.5,171.4 L318.2,175.9 L323.6,175.1 L335.9,180.6 L343.5,180.3 L343.4,185.5 L347.8,189.2 L346.5,190.2 L350.5,191 L350.5,188.7 L351.6,189.9 L352.7,187.3 L349.4,181.4 L357.2,177.3 L356.5,174 L352.3,171.7 L355.3,169.4 L354.8,166.3 L353.2,166.4 L354.9,164.6 L353.3,162.7 L354.9,162 L364,162.3 L369,165.5 L373.9,165.7 L373.7,168.1 L370.3,168.2 L373.8,168.7 L374.1,171 L372.2,171.3 L376.7,171.3 L374.3,173.8 L377.5,171.8 L378.2,173.4 L381.4,171.1 L382.2,172.4 L386,167.6 L388.6,170.1 L387,170.7 L389.9,171.5 L388.1,172.5 L390.6,172.1 L388.7,173.3 L390.8,172.8 L392.2,174.1 L390.6,174.5 L393.4,175.4 L390.5,176.2 L395.9,178.6 L395,180.6 L403,181.6 L394.6,183.4 L395.7,184.8 L401,182.4 L403.5,183.1 L402.9,184.4 L406.3,184.1 L406.8,186.4 L405,186.4 L407.1,187.4 L403.9,189.3 L396.3,192.3 L381.2,192.1 L373.6,197.3 L370.2,196.6 L373.4,197.4 L372.2,198.9 L362.3,203.6 L383.4,194.6 L386.7,196.4 L380.3,197.7 L385.2,198.1 L383.8,199.9 L385.8,202 L394.4,204.3 L386.4,206.1 L383.6,208.7 L381.9,206.4 L388.6,204.1 L384.9,204.2 L386.5,203.1 L385.3,202.3 L379.5,204.4 L379.5,205.9 L375.6,206.1 L371,209.6 L370.3,211.5 L372.9,213.1 L363.5,215.3 L363.3,214.1 L362.2,218.8 L360.9,219.8 L359.5,218.2 L360.8,217.2 L359.4,218.1 L360.7,221.1 L358.6,224.3 L359.3,222.2 L357.5,220.1 L358.8,218.2 L357,219 L357.7,222 L355.9,219.9 L357.8,224.4 L355.4,223.8 L358.4,224.7 L359.6,227.5 L358.6,225.2 L359,226.8 L356.7,226.2 L359.1,227.4 L355.9,228.1 L357.6,229.7 L346.8,235.5 L345.3,238.3 L348.8,249.5 L347.9,253.4 L344.8,251.6 L342.1,247 L342.6,244.4 L339.3,241.4 L324.5,240.7 L326.5,241.5 L326.4,244.3 L315.8,241.7 L306.4,247.9 L307.9,251.5 L306.1,259.7 L311,269.2 L314.3,270.6 L321.4,269.9 L324.8,263.2 L332.6,262.6 L327.6,276.1 L336.9,275.9 L340.9,277.8 L339.6,287.4 L343.9,293.2 L351.3,291.6 L356.6,295.7 L359.7,289 L368.8,284.5 L370.1,285.5 L368.1,286.8 L368.8,292.9 L370.3,291.2 L369,288.6 L373.3,287 L372.7,285.2 L377.2,289.4 L384.5,290.4 L392.3,288.7 L389.7,290.5 L394.4,291.7 L392.7,294 L398.7,295.3 L399.8,299.4 L401.4,298.4 L403.2,301.6 L410.4,300.6 L417.6,304.8 L420.8,312.1 L414.1,318.9 L418.5,317.2 L418.5,319.8 L421.9,319.3 L421.5,321.5 L427,316.4 L432.8,318.5 L433,323.1 L436.3,320.7 L444.5,322 L451.2,327 L455.5,327.8 L456.5,335.4 L448.7,346.3 L447,346.1 L446.5,358.2 L442.1,368.7 L439.6,371.2 L433.9,371.1 L423.6,377 L423.5,384.7 L415.6,393.6 L419.2,389.4 L417.5,388.4 L410.7,399.7 L401.8,399.3 L401,394.3 L400.1,398.8 L404.6,404.8 Z"/><path d="M860.6,394.4 L853.4,391.9 L848.6,392.4 L840.9,393.9 L835.1,398 L826.7,397.9 L821.7,400.8 L817.1,400.2 L814.7,398.7 L816.4,392.7 L810.3,378.9 L812,379.8 L811.2,377.4 L812.9,379.3 L810.9,374.7 L811.5,370.2 L819,365.2 L829.4,362.7 L833.6,355.1 L835.2,358 L835.2,354.5 L838.4,355.1 L837.1,353 L839.1,352.9 L841.2,349 L844.4,349.1 L845.8,352.9 L847,351.1 L849.9,352.1 L849.1,350 L851.9,345.3 L857.1,344.7 L855.3,342.2 L863,345.1 L864.7,343.7 L865,345.5 L866.3,344.1 L867.2,345.2 L863.6,351.5 L875.7,358.1 L880.5,341.1 L883.5,350.2 L887.2,351.5 L889.6,361.3 L895.4,364.5 L897.5,370 L900,369.7 L900.3,372.5 L905.3,376.8 L907,385.1 L905.3,392 L901.3,397 L898.3,406.7 L889.7,410.7 L885.6,408.7 L886.2,407.6 L882.9,410 L875.9,408 L872.9,401.5 L869.9,402.1 L869.9,398.5 L869.1,400.9 L866.9,401.2 L869.5,397.2 L869.1,394.5 L864.8,400.6 L860.6,394.4 Z"/><path d="M443.2,113.2 L429.1,112 L447.8,112.7 L451.9,111.7 L447.2,111 L466.8,110.6 L477.8,111.6 L455.1,112.7 L479.7,111.7 L489,113 L461.7,115 L481.2,114.6 L477,116 L489.1,114.4 L489.2,115.7 L483,118 L492.9,115.3 L512.8,115.8 L490.2,118.1 L502.4,118.4 L491.2,119.8 L494.9,121.3 L489.9,122.4 L487.5,125.1 L494.3,125.1 L490,125.5 L495.7,126.1 L495.8,127.4 L485.7,127.5 L493.8,129.9 L493.2,131.3 L486.8,130 L491,131.3 L486.5,131.3 L494.7,132.9 L487.2,132.7 L486.3,133.9 L490.9,135.5 L478.6,134.2 L481,135.3 L473.8,136.2 L480.2,136.4 L474.6,136.9 L487.7,139.6 L486.3,140.8 L488,140.2 L486.6,141.3 L488.7,142.6 L484.2,142.8 L471.6,138.7 L474.7,139.7 L471.9,140.1 L479.3,140.6 L472.2,141.5 L470.2,142.9 L477.1,143 L471.8,143.8 L487.3,143.6 L469.8,148.3 L462.4,147.3 L463.5,149 L457.1,152.8 L451.2,154.2 L449.6,152.6 L448.7,154.5 L441.8,155.8 L443.6,157.7 L440.7,157.9 L443.2,159.3 L436.9,161.6 L439.3,162.5 L437.3,162.2 L439.4,163.4 L436.7,165.1 L438.2,165.6 L435.8,165.6 L437.9,166.6 L434.4,166.8 L436.9,168.1 L432.1,168.1 L433.8,166.9 L430.4,167.1 L431.9,166.1 L429.6,166.5 L430.8,165.1 L424.8,166.3 L425.5,165.1 L421.9,163.9 L423.3,163.2 L419.8,162.2 L421.3,160.9 L416.8,159.2 L420.4,158.3 L416.3,158.1 L418.6,157 L421.5,157.7 L418.9,155.6 L415.4,158 L417.6,156.1 L414.4,155.3 L419.3,154.4 L414.6,155.2 L412.8,154.3 L416.4,153.5 L412.3,153.6 L420.6,151.3 L412.3,153.4 L415.2,151.6 L411.1,151 L419.7,150.8 L411.3,150.6 L420.4,150 L411.6,149.7 L415.6,148.8 L413,148.3 L420.1,149 L417.1,148.3 L418.5,147.5 L412.5,148 L418.5,147.3 L420.1,143.8 L409.5,142.3 L419.4,142.6 L414.5,141 L417.3,140.2 L413.4,140.4 L416.6,139.7 L412.8,139.7 L414.1,139 L412.1,138.1 L411.1,140.4 L406.5,139.8 L410.1,138.5 L407.1,137.9 L410.3,137.8 L406.9,136.4 L408.4,135.7 L405.9,133.4 L403.1,133.9 L405.8,132.8 L394.5,128.8 L376.5,129 L373.7,128.2 L377.6,127.5 L369.5,126.6 L381.9,125.4 L365.5,123.9 L382.8,121.6 L387.6,119.1 L378.9,118.6 L394.1,116.7 L393.6,115 L405.1,116.2 L397.9,114.5 L409.9,113.6 L411.8,115.7 L413.6,114.5 L420.7,115.5 L418.1,114.7 L421.9,114.7 L417.9,113.3 L433.3,115.2 L433.5,113.8 L438.9,114 L430.7,112.7 L443.2,113.2 Z"/><path d="M365.7,151.9 L367.5,150.5 L365.6,148.2 L361.3,146.1 L357,147.1 L359.4,145.8 L351.7,142.3 L349.9,142.9 L351.8,144.2 L335.1,143.9 L327.6,142.6 L326.1,141.2 L332.2,141.5 L324.7,139.2 L328.1,135.5 L336.7,134.6 L332.8,137.2 L337.3,140.7 L332.6,141.5 L337.4,141.6 L337.8,139.8 L334.4,139 L338.9,138.9 L335.3,136.8 L339.4,137.1 L335.8,136.3 L345.2,134.8 L348.3,137.2 L345.6,138.4 L347.7,137.8 L346.5,139.3 L349.3,137.8 L354.3,139.6 L351.7,138.2 L356.1,138.7 L352.3,137.8 L356.3,137.2 L361,138.4 L358.2,139.7 L362.8,138.9 L359.9,139.8 L361.7,139.8 L360.6,141 L363.9,139.5 L362.5,140.4 L364.3,140.1 L363.5,141.3 L366.7,139.8 L370.1,140.8 L366.6,142.4 L371.3,141.3 L368.1,142.9 L370,142.6 L369.1,143.8 L373,141.7 L371.6,142.7 L376.7,142.5 L371.6,144.3 L377.4,143.1 L379.7,144.6 L372.7,145 L380.8,145.8 L374.3,146.8 L380.7,147.7 L377.9,148.1 L382.5,148.4 L382.3,149.7 L385.3,148.8 L384.3,149.6 L387.3,150.5 L385.4,151.2 L393.6,152.1 L389.8,152.8 L392,153.6 L389.3,153.4 L390.3,154.7 L388.3,153.8 L388.2,156.4 L383.5,154.3 L386.3,152.8 L375.5,153.2 L384.4,157.3 L383.2,157.8 L385.6,158.6 L385.8,160.4 L384,159 L384.9,161.9 L375.2,159.1 L381.7,163.8 L368.7,160.6 L369.8,159.5 L364.9,156.9 L353.6,157.5 L355.1,155 L359.9,156.8 L358.6,155.3 L364.5,155 L362.1,153.3 L365.7,151.9 Z"/><path d="M394.1,113.7 L374.4,115.2 L380.9,115.7 L372.7,116.7 L385.5,116 L367.1,118.9 L371.5,119.2 L370,120 L353.5,121 L362.1,121.3 L351.5,121.7 L361.7,122.9 L356.9,123 L360.8,123.5 L353.1,124.3 L354.3,125.3 L352,126 L344.3,125.1 L354.3,127.2 L346.3,128.9 L342.4,127.2 L343.4,128.2 L336.5,128.5 L326.1,127.1 L333.1,126.3 L329.2,124.7 L338.2,126 L343.3,124.1 L339.5,125.6 L335.3,124.5 L339.3,123.9 L337,123.8 L337.8,122.9 L330.9,124 L333.1,122.4 L345.4,121.8 L337.5,121.8 L340.9,121.8 L333.4,120 L336.3,119.6 L333.4,118.7 L347.5,120.5 L341.2,118.7 L353.5,118.1 L349,117.9 L357.2,117.4 L351.4,117.3 L356.7,115.9 L336.7,118.2 L332.8,118 L335,117.1 L343.2,116.5 L330.5,117.9 L326.4,117.2 L337.5,116.3 L325.4,117 L331.4,115.7 L320.3,115.4 L337.9,114.8 L332.5,114 L337.6,113.4 L350.7,115 L343.2,113 L357.9,113.5 L359.9,113 L355.7,112 L394.1,113.7 Z"/><path d="M872.5,332 L869.8,328.2 L859.4,324 L859.8,322.1 L857.5,325 L855.2,321.8 L859.4,321.6 L860,320.2 L856.1,320.5 L852.8,318.5 L856.3,315.9 L860.1,316.8 L860.6,320.8 L863.3,323.3 L869.4,318.6 L885.2,324.3 L888.2,328.4 L893.1,330.5 L891,331.9 L895,337.2 L900.4,340 L898.8,341.2 L892.9,339.7 L889,334.8 L885.2,333.3 L879.6,335.1 L882.5,337 L877.2,337.6 L874.8,334.3 L871.9,335.3 L871.3,332.6 L872.6,332.5 L871,331.9 L872.5,332 Z"/></g><g stroke="#1f1f1f" stroke-width="0.6" opacity="0.92"><line x1="110" y1="113" x2="970" y2="113"/><line x1="110" y1="131" x2="970" y2="131"/><line x1="110" y1="149" x2="970" y2="149"/><line x1="110" y1="167" x2="970" y2="167"/><line x1="110" y1="185" x2="970" y2="185"/><line x1="110" y1="203" x2="970" y2="203"/><line x1="110" y1="221" x2="970" y2="221"/><line x1="110" y1="239" x2="970" y2="239"/><line x1="110" y1="257" x2="970" y2="257"/><line x1="110" y1="275" x2="970" y2="275"/><line x1="110" y1="293" x2="970" y2="293"/><line x1="110" y1="315" x2="970" y2="315" stroke="#000000" stroke-width="1.5"/><line x1="110" y1="337" x2="970" y2="337"/><line x1="110" y1="355" x2="970" y2="355"/><line x1="110" y1="373" x2="970" y2="373"/><line x1="110" y1="391" x2="970" y2="391"/><line x1="110" y1="409" x2="970" y2="409"/><line x1="110" y1="427" x2="970" y2="427"/><line x1="110" y1="445" x2="970" y2="445"/><line x1="110" y1="463" x2="970" y2="463"/><line x1="110" y1="481" x2="970" y2="481"/><line x1="110" y1="499" x2="970" y2="499"/><line x1="110" y1="517" x2="970" y2="517"/></g><g stroke="#1f1f1f" stroke-width="0.6" opacity="0.92"><line x1="134" y1="95" x2="134" y2="535"/><line x1="158" y1="95" x2="158" y2="535"/><line x1="182" y1="95" x2="182" y2="535"/><line x1="206" y1="95" x2="206" y2="535"/><line x1="230" y1="95" x2="230" y2="535"/><line x1="254" y1="95" x2="254" y2="535"/><line x1="278" y1="95" x2="278" y2="535"/><line x1="302" y1="95" x2="302" y2="535"/><line x1="326" y1="95" x2="326" y2="535"/><line x1="350" y1="95" x2="350" y2="535"/><line x1="374" y1="95" x2="374" y2="535"/><line x1="398" y1="95" x2="398" y2="535"/><line x1="422" y1="95" x2="422" y2="535"/><line x1="446" y1="95" x2="446" y2="535"/><line x1="470" y1="95" x2="470" y2="535"/><line x1="494" y1="95" x2="494" y2="535"/><line x1="518" y1="95" x2="518" y2="535"/><line x1="540" y1="95" x2="540" y2="535" stroke="#000000" stroke-width="1.5"/><line x1="562" y1="95" x2="562" y2="535"/><line x1="586" y1="95" x2="586" y2="535"/><line x1="610" y1="95" x2="610" y2="535"/><line x1="634" y1="95" x2="634" y2="535"/><line x1="658" y1="95" x2="658" y2="535"/><line x1="682" y1="95" x2="682" y2="535"/><line x1="706" y1="95" x2="706" y2="535"/><line x1="730" y1="95" x2="730" y2="535"/><line x1="754" y1="95" x2="754" y2="535"/><line x1="778" y1="95" x2="778" y2="535"/><line x1="802" y1="95" x2="802" y2="535"/><line x1="826" y1="95" x2="826" y2="535"/><line x1="850" y1="95" x2="850" y2="535"/><line x1="874" y1="95" x2="874" y2="535"/><line x1="898" y1="95" x2="898" y2="535"/><line x1="922" y1="95" x2="922" y2="535"/><line x1="946" y1="95" x2="946" y2="535"/></g></g><text x="54" y="102" font-family="Arial, Helvetica, sans-serif" font-size="15" fill="#000000">90°N</text><text x="67" y="320" font-family="Arial, Helvetica, sans-serif" font-size="15" fill="#000000">0°</text><text x="54" y="536" font-family="Arial, Helvetica, sans-serif" font-size="15" fill="#000000">90°S</text><text x="110" y="575" font-family="Arial, Helvetica, sans-serif" font-size="15" fill="#000000">180°W</text><text x="526" y="575" font-family="Arial, Helvetica, sans-serif" font-size="15" fill="#000000">0°</text><text x="920" y="575" font-family="Arial, Helvetica, sans-serif" font-size="15" fill="#000000">180°E</text><text x="70" y="603" font-family="Arial, Helvetica, sans-serif" font-size="16" fill="#000000">Dense graticule lines represent regular latitude/longitude bins; global_0p25 means 0.25° x 0.25° cell spacing.</text></svg>
